<svg xmlns="http://www.w3.org/2000/svg" viewBox="0 0 680 680" width="100%" role="img">

  <defs>
    <filter id="glow" x="-80%" y="-80%" width="260%" height="260%">
      <feGaussianBlur stdDeviation="6" result="blur"/>
      <feComposite in="SourceGraphic" in2="blur" operator="over"/>
    </filter>
    <filter id="glowSoft" x="-60%" y="-60%" width="220%" height="220%">
      <feGaussianBlur stdDeviation="3" result="blur"/>
      <feComposite in="SourceGraphic" in2="blur" operator="over"/>
    </filter>
    <clipPath id="roundedBg">
      <rect x="40" y="40" width="600" height="600" rx="120"/>
    </clipPath>
  </defs>

 
  <rect x="40" y="40" width="600" height="600" rx="120" fill="#0a0e1a"/>
  <rect x="40" y="40" width="600" height="600" rx="120" fill="none" stroke="#1a1f3a" stroke-width="2"/>

 
  <g clip-path="url(#roundedBg)" stroke="#7dd3fc" stroke-width="0.4" opacity="0.06">
    <line x1="40" y1="210" x2="640" y2="210"/>
    <line x1="40" y1="340" x2="640" y2="340"/>
    <line x1="40" y1="470" x2="640" y2="470"/>
    <line x1="210" y1="40" x2="210" y2="640"/>
    <line x1="340" y1="40" x2="340" y2="640"/>
    <line x1="470" y1="40" x2="470" y2="640"/>
  </g>


  <g transform="translate(330, 315)" fill="none" stroke="#7dd3fc" stroke-linecap="round" clip-path="url(#roundedBg)">
    <rect x="-240" y="-240" width="480" height="480" rx="24" stroke-width="2" opacity="0.55"/>
    <rect x="-175" y="-175" width="350" height="350" rx="18" stroke-width="2" opacity="0.45"/>
    <rect x="-110" y="-110" width="220" height="220" rx="12" stroke-width="2" opacity="0.35"/>
    <rect x="-52" y="-52" width="104" height="104" rx="8" stroke-width="2" opacity="0.28"/>
  </g>

 
  <g transform="translate(330, 315)" fill="#7dd3fc" opacity="0.2" clip-path="url(#roundedBg)">
    <rect x="-5" y="-265" width="10" height="22" rx="2"/>
    <rect x="-5" y="-196" width="10" height="22" rx="2"/>
    <rect x="-5" y="243" width="10" height="22" rx="2"/>
    <rect x="-265" y="-5" width="22" height="10" rx="2"/>
    <rect x="196" y="-5" width="22" height="10" rx="2"/>
    <rect x="243" y="-5" width="22" height="10" rx="2"/>
  </g>


  <g transform="translate(330, 315)" fill="#7dd3fc" opacity="0.32" clip-path="url(#roundedBg)">
    <rect x="-248" y="-248" width="10" height="10" rx="2"/>
    <rect x="238" y="-248" width="10" height="10" rx="2"/>
    <rect x="-248" y="238" width="10" height="10" rx="2"/>
    <rect x="238" y="238" width="10" height="10" rx="2"/>
  </g>


  <g transform="translate(330, 315)" fill="#7dd3fc">
    <rect x="-44" y="-11" width="88" height="22" rx="6"/>
    <rect x="-11" y="-44" width="22" height="88" rx="6"/>
  </g>


  <g transform="translate(490, 498) scale(0.52)">

  
    <ellipse cx="-28" cy="-34" rx="54" ry="18" fill="#1e3a5f" stroke="#7dd3fc" stroke-width="0.8" opacity="0.3" transform="rotate(-20 -28 -34)"/>
    <ellipse cx="-20" cy="-16" rx="38" ry="12" fill="#1e3a5f" stroke="#7dd3fc" stroke-width="0.6" opacity="0.24" transform="rotate(-10 -20 -16)"/>


    <ellipse cx="28" cy="6" rx="62" ry="26" fill="#0f172a"/>
    <ellipse cx="28" cy="6" rx="62" ry="26" fill="none" stroke="#1e293b" stroke-width="0.8"/>
    <line x1="-8" y1="-16" x2="-8" y2="28" stroke="#1e293b" stroke-width="1" opacity="0.6"/>
    <line x1="18" y1="-18" x2="18" y2="30" stroke="#1e293b" stroke-width="1" opacity="0.6"/>
    <line x1="44" y1="-14" x2="44" y2="26" stroke="#1e293b" stroke-width="1" opacity="0.6"/>


    <ellipse cx="-40" cy="3" rx="26" ry="21" fill="#1e293b"/>
    <ellipse cx="-40" cy="3" rx="26" ry="21" fill="none" stroke="#334155" stroke-width="0.7"/>


    <ellipse cx="-74" cy="1" rx="24" ry="22" fill="#334155"/>
    <ellipse cx="-74" cy="1" rx="24" ry="22" fill="none" stroke="#475569" stroke-width="0.8"/>

  
    <circle cx="-79" cy="-2" r="12" fill="#fff"/>
    <circle cx="-79" cy="-2" r="7" fill="#0f172a"/>
    <circle cx="-77" cy="-5" r="3.5" fill="#fff"/>
    <circle cx="-72" cy="-5" r="1.5" fill="#fff" opacity="0.5"/>

  
    <path d="M -87 -12 Q -79 -17 -70 -12" fill="none" stroke="#475569" stroke-width="2" stroke-linecap="round"/>


    <ellipse cx="-88" cy="5" rx="7" ry="4" fill="#f0abfc" opacity="0.25"/>


    <path d="M -85 8 Q -80 13 -74 8" fill="none" stroke="#475569" stroke-width="1.5" stroke-linecap="round"/>


    <path d="M -88 -16 Q -106 -44 -96 -58" fill="none" stroke="#fbbf24" stroke-width="2" stroke-linecap="round"/>
    <circle cx="-96" cy="-58" r="4" fill="#fcd34d" filter="url(#glowSoft)"/>


    <g stroke="#0f172a" stroke-width="2.2" stroke-linecap="round" fill="none">
      <path d="M -54 24 L -52 42 M -52 42 L -60 52 M -52 42 L -44 52 M -52 42 L -52 54"/>
      <path d="M -6 30 L -4 46 M -4 46 L -12 56 M -4 46 L 4 56 M -4 46 L -4 58"/>
      <path d="M 40 26 L 42 44 M 42 44 L 34 54 M 42 44 L 50 54 M 42 44 L 42 56"/>
    </g>


    <g transform="translate(82, 6)" filter="url(#glow)">
      <ellipse cx="0" cy="0" rx="20" ry="16" fill="#0f172a"/>
      <ellipse cx="0" cy="0" rx="20" ry="16" fill="none" stroke="#7dd3fc" stroke-width="1"/>
      <ellipse cx="0" cy="0" rx="11" ry="9" fill="#7dd3fc"/>
      <ellipse cx="-2" cy="-2" rx="4" ry="3" fill="#e0f2fe"/>
    </g>

 
    <circle cx="118" cy="-8" r="2.5" fill="#7dd3fc" opacity="0.65" filter="url(#glowSoft)"/>
    <circle cx="126" cy="18" r="1.8" fill="#7dd3fc" opacity="0.45" filter="url(#glowSoft)"/>


    <rect x="-110" y="56" width="220" height="14" rx="7" fill="#0a0f1a"/>
    <rect x="-110" y="57" width="220" height="7" rx="3" fill="#1a233a"/>
  </g>
</svg>